<svg width="754" height="156" viewBox="0 0 754 156" fill="none" xmlns="http://www.w3.org/2000/svg">
<path d="M61.9568 4.62138L61.9483 4.6257L10.7807 30.7139L10.7787 30.7149C8.28039 31.9915 6.18477 33.9375 4.7238 36.3357C3.26344 38.7329 2.494 41.4885 2.50004 44.2968V109V109.025L2.50055 109.051C2.55484 111.713 3.30003 114.316 4.66314 116.603C6.02518 118.887 7.95742 120.777 10.2703 122.085C10.2722 122.086 10.2741 122.087 10.276 122.088L60.9874 151.02C60.989 151.021 60.9907 151.022 60.9923 151.023C63.2117 152.298 65.7216 152.98 68.2804 153L68.2903 153H68.3003H68.4761H68.4966L68.5172 153C71.0795 152.958 73.5893 152.267 75.8141 150.993L75.8187 150.99L129.885 119.874C129.886 119.874 129.886 119.873 129.887 119.873C132.205 118.542 134.131 116.619 135.467 114.3C136.804 111.981 137.505 109.349 137.5 106.671V45.5647C137.507 42.7553 136.737 39.9984 135.276 37.6004C133.815 35.2022 131.72 33.2562 129.221 31.9796L129.217 31.9776L75.4413 4.6246L75.4362 4.62204C73.3543 3.56903 71.0573 3.01376 68.7252 3.00004L68.7128 2.99997L68.7003 3.00002C66.3573 3.00956 64.0489 3.56471 61.9568 4.62139L61.9568 4.62138Z" fill="url(#paint0_linear_731_3)" stroke="white" stroke-width="5"/>
<path fill-rule="evenodd" clip-rule="evenodd" d="M13.3167 44.8651C12.9197 44.6565 12.5871 44.342 12.3549 43.9559C12.1228 43.5697 12 43.1268 12 42.6752C12 42.2235 12.1228 41.7806 12.3549 41.3944C12.5871 41.0083 12.9197 40.6938 13.3167 40.4852L65.1135 14.0294C65.7746 13.6816 66.5092 13.5 67.2547 13.5C68.0003 13.5 68.7348 13.6816 69.3959 14.0294L120.727 40.4852C121.13 40.6957 121.468 41.0141 121.704 41.4055C121.94 41.7969 122.065 42.2463 122.065 42.7045C122.065 43.1628 121.94 43.6122 121.704 44.0036C121.468 44.395 121.13 44.7134 120.727 44.9239L115.337 47.6871C114.588 48.0717 113.76 48.2722 112.919 48.2722C112.079 48.2722 111.25 48.0717 110.501 47.6871L70.2116 27.1103C69.7065 26.8497 69.1474 26.7138 68.5802 26.7138C68.0129 26.7138 67.4538 26.8497 66.9488 27.1103L61.1224 30.2556C60.8238 30.4159 60.574 30.6552 60.3999 30.9477C60.2257 31.2403 60.1337 31.5751 60.1337 31.9164C60.1337 32.2577 60.2257 32.5926 60.3999 32.8851C60.574 33.1777 60.8238 33.417 61.1224 33.5773L88.0404 47.4519C88.4364 47.665 88.7676 47.9827 88.9985 48.371C89.2294 48.7594 89.3513 49.2037 89.3513 49.6566C89.3513 50.1094 89.2294 50.5537 88.9985 50.9421C88.7676 51.3304 88.4364 51.6481 88.0404 51.8612L83.2336 54.3892C82.7286 54.6498 82.1694 54.7857 81.6022 54.7857C81.035 54.7857 80.4759 54.6498 79.9708 54.3892L48.7704 38.2511C48.2572 37.9831 47.6877 37.8432 47.1099 37.8432C46.532 37.8432 45.9625 37.9831 45.4493 38.2511L39.6229 41.4553C39.3243 41.6156 39.0745 41.8548 38.9004 42.1474C38.7262 42.4399 38.6342 42.7748 38.6342 43.1161C38.6342 43.4574 38.7262 43.7923 38.9004 44.0848C39.0745 44.3774 39.3243 44.6166 39.6229 44.7769L76.4167 63.6782C76.8201 63.8887 77.1583 64.2071 77.3944 64.5985C77.6305 64.9899 77.7554 65.4393 77.7554 65.8975C77.7554 66.3557 77.6305 66.8051 77.3944 67.1965C77.1583 67.588 76.8201 67.9064 76.4167 68.1169L69.4833 71.5561C68.7405 71.9267 67.923 72.1195 67.0944 72.1195C66.2658 72.1195 65.4484 71.9267 64.7057 71.5561L13.3167 44.8651ZM44.8958 81.3154L38.6616 85.1074L17.3369 97.8944C16.7859 98.2053 16.1631 98.3638 15.5319 98.3538C14.9006 98.3438 14.2833 98.1657 13.7422 97.8375C13.2011 97.5093 12.7555 97.0426 12.4506 96.4848C12.1456 95.927 11.9922 95.2978 12.0058 94.6609V63.1785C11.9845 62.5501 12.1273 61.9271 12.4198 61.372C12.7124 60.8169 13.1443 60.3491 13.6726 60.0156C14.2008 59.6821 14.8066 59.4946 15.4293 59.4719C16.052 59.4492 16.6696 59.592 17.2204 59.8861L38.6616 71.6443L44.7502 74.9366C45.2874 75.2675 45.7337 75.7293 46.048 76.2795C46.3623 76.8298 46.5347 77.4509 46.5492 78.0858C46.5636 78.7208 46.4198 79.3493 46.1309 79.9135C45.8421 80.4778 45.4174 80.9599 44.8958 81.3154V81.3154ZM37.438 99.5699C60.3358 85.7541 106.539 59.9743 121.105 51.8612C121.563 51.5858 122.086 51.4421 122.619 51.4458C123.151 51.4496 123.673 51.6005 124.126 51.8824C124.58 52.1642 124.948 52.5661 125.191 53.0444C125.434 53.5226 125.542 54.0589 125.504 54.595C125.493 55.536 125.234 56.457 124.752 57.2631C124.271 58.0692 123.585 58.7311 122.766 59.1807L71.2604 87.7824H71.0273C68.9971 89.1452 67.3385 91.0004 66.2034 93.178C65.0684 95.3556 64.4933 97.7859 64.5309 100.246L65.3174 134.168C65.3684 136.291 66.0708 138.345 67.3275 140.047C67.4343 140.193 67.4955 140.368 67.5033 140.549C67.5111 140.73 67.4651 140.91 67.3713 141.065C67.2774 141.219 67.1399 141.342 66.9764 141.418C66.813 141.493 66.6308 141.517 66.4535 141.488C63.5403 140.753 58.7044 140.341 58.0052 134.021V127.907C57.9752 126.221 57.4758 124.577 56.564 123.163C55.6522 121.749 54.3649 120.622 52.8489 119.912L37.5254 112.768L31.3786 109.564C30.8046 109.259 30.321 108.806 29.9769 108.252C29.6329 107.697 29.4407 107.06 29.42 106.405C29.3993 105.751 29.5507 105.103 29.8589 104.527C30.1672 103.951 30.6211 103.468 31.1746 103.127C33.2139 102.098 35.3114 100.805 37.438 99.5405V99.5699ZM121.542 95.7191C121.746 95.3503 121.856 94.9362 121.863 94.5139C121.882 94.2984 121.84 94.0819 121.742 93.8894C121.644 93.697 121.494 93.5364 121.309 93.4263C121.134 93.317 120.932 93.2591 120.727 93.2591C120.521 93.2591 120.319 93.317 120.144 93.4263C119.81 93.6421 119.53 93.9341 119.328 94.2788C119.137 94.6301 119.037 95.0244 119.037 95.4252C119.009 95.6532 119.05 95.8844 119.154 96.0888C119.257 96.2932 119.42 96.4614 119.62 96.5716C119.763 96.6055 119.913 96.6055 120.057 96.5716C120.301 96.5769 120.542 96.5159 120.756 96.3952C121.059 96.2241 121.327 95.9944 121.542 95.7191V95.7191ZM116.415 98.6587C116.627 98.2403 116.737 97.7766 116.735 97.3065V89.6049C116.76 89.3695 116.728 89.1317 116.641 88.9117C116.555 88.6916 116.418 88.4958 116.24 88.3409C116.06 88.2158 115.847 88.1487 115.628 88.1487C115.41 88.1487 115.197 88.2158 115.017 88.3409C114.674 88.5593 114.393 88.863 114.201 89.2228C113.995 89.632 113.895 90.0869 113.91 90.5456V92.6326C113.914 92.7429 113.886 92.852 113.829 92.9462C113.772 93.0403 113.688 93.1154 113.589 93.1617L112.336 93.8966C112.242 93.9482 112.136 93.9739 112.029 93.971C111.921 93.9681 111.817 93.9368 111.725 93.8802C111.634 93.8236 111.559 93.7437 111.507 93.6486C111.456 93.5534 111.431 93.4464 111.433 93.3381V92.6032C111.453 92.3683 111.419 92.1319 111.333 91.9126C111.247 91.6933 111.112 91.4971 110.938 91.3392C110.759 91.2274 110.552 91.1681 110.341 91.1681C110.13 91.1681 109.923 91.2274 109.744 91.3392C109.379 91.5518 109.085 91.869 108.899 92.2505C108.701 92.651 108.61 93.097 108.637 93.5439V101.275C108.618 101.503 108.65 101.732 108.731 101.946C108.811 102.159 108.939 102.352 109.103 102.509C109.27 102.639 109.475 102.711 109.686 102.715C109.914 102.707 110.135 102.636 110.326 102.509C110.696 102.317 110.993 102.007 111.171 101.628C111.377 101.218 111.477 100.763 111.463 100.305V97.718C111.462 97.6085 111.491 97.5009 111.548 97.4074C111.605 97.3139 111.686 97.2382 111.783 97.1889L113.036 96.454C113.13 96.4024 113.236 96.3768 113.344 96.3796C113.451 96.3825 113.555 96.4138 113.647 96.4704C113.738 96.527 113.814 96.6069 113.865 96.7021C113.916 96.7972 113.942 96.9043 113.939 97.0125V98.2178C113.908 98.4508 113.935 98.6879 114.016 98.9082C114.097 99.1285 114.231 99.3254 114.405 99.4817C114.583 99.6109 114.797 99.6804 115.017 99.6804C115.236 99.6804 115.45 99.6109 115.628 99.4817C115.984 99.2836 116.277 98.9881 116.473 98.6293L116.415 98.6587ZM106.452 102.363C106.582 101.944 106.651 101.508 106.656 101.069C106.667 100.873 106.628 100.678 106.541 100.502C106.454 100.327 106.323 100.178 106.161 100.07C105.999 99.968 105.812 99.9142 105.622 99.9142C105.431 99.9142 105.244 99.968 105.083 100.07C104.749 100.24 104.482 100.52 104.325 100.863C104.206 101.15 104.109 101.444 104.034 101.745C103.91 102.27 103.693 102.768 103.393 103.215C103.121 103.604 102.774 103.934 102.373 104.185C102.141 104.343 101.867 104.425 101.587 104.42C101.587 104.42 101.383 104.42 101.237 104.038C101.059 103.559 100.98 103.049 101.004 102.539C100.973 101.606 101.163 100.679 101.558 99.8345C101.826 99.1587 102.307 98.5907 102.927 98.2178C103.335 97.9826 103.539 97.9826 103.626 98.012C103.804 98.0849 103.949 98.2208 104.034 98.3941C104.165 98.6524 104.367 98.8669 104.617 99.0114C104.772 99.1017 104.947 99.1493 105.126 99.1493C105.305 99.1493 105.481 99.1017 105.636 99.0114C105.945 98.8396 106.19 98.5714 106.335 98.2471C106.525 97.949 106.626 97.6021 106.627 97.2477C106.633 96.6906 106.424 96.153 106.044 95.7485C105.834 95.5366 105.584 95.37 105.309 95.2588C105.033 95.1476 104.738 95.0942 104.442 95.1018C103.698 95.1003 102.97 95.3146 102.344 95.7191C101.732 96.091 101.173 96.546 100.684 97.0713C100.157 97.6254 99.7062 98.2482 99.3436 98.9232C98.9628 99.629 98.6693 100.379 98.4697 101.157C98.253 101.951 98.1548 102.774 98.1784 103.597C98.1302 104.066 98.1302 104.539 98.1784 105.008C98.2612 105.426 98.3983 105.831 98.5862 106.213C98.7721 106.551 99.0192 106.85 99.3145 107.095C99.6252 107.347 99.9977 107.509 100.392 107.565H100.713C101.019 107.557 101.323 107.508 101.616 107.418C102.062 107.267 102.492 107.07 102.898 106.831C103.618 106.481 104.269 106.003 104.82 105.42C105.253 104.932 105.634 104.4 105.957 103.832C106.16 103.397 106.326 102.944 106.452 102.48V102.363ZM96.4596 110.123C96.64 109.82 96.7404 109.476 96.7509 109.123C96.7538 108.926 96.7073 108.731 96.6156 108.556C96.5239 108.381 96.3901 108.233 96.2265 108.124C96.0388 108.058 95.8384 108.037 95.6412 108.062C95.444 108.088 95.2555 108.159 95.0904 108.271L92.9637 109.506C92.8715 109.556 92.768 109.582 92.6632 109.58C92.5584 109.579 92.4557 109.55 92.365 109.497C92.2743 109.444 92.1987 109.368 92.1454 109.277C92.0921 109.186 92.0629 109.082 92.0606 108.976C92.0605 108.866 92.0869 108.758 92.1377 108.661C92.1885 108.563 92.262 108.48 92.3519 108.418L95.2651 106.772C95.5931 106.596 95.8656 106.332 96.0517 106.008C96.2223 105.724 96.3129 105.399 96.3139 105.067C96.3347 104.871 96.2956 104.672 96.2019 104.499C96.1082 104.326 95.9644 104.185 95.7895 104.097C95.6071 104.028 95.4109 104.006 95.2179 104.032C95.025 104.057 94.8412 104.13 94.6825 104.244L92.0898 105.743V105.067C92.0896 104.957 92.1161 104.849 92.1668 104.751C92.2176 104.654 92.2912 104.571 92.3811 104.508L95.5273 102.715C95.8578 102.533 96.1381 102.27 96.343 101.951C96.5145 101.646 96.6048 101.302 96.6052 100.952C96.626 100.755 96.587 100.557 96.4933 100.384C96.3996 100.21 96.2557 100.07 96.0808 99.9814C95.8984 99.9131 95.7022 99.8908 95.5093 99.9164C95.3163 99.942 95.1325 100.015 94.9738 100.128L90.5748 102.686C90.2987 102.823 90.0514 103.013 89.8465 103.244C89.6307 103.479 89.4713 103.761 89.3805 104.067C89.3305 104.379 89.3305 104.697 89.3805 105.008V112.357C89.3597 112.603 89.3962 112.851 89.4873 113.081C89.5783 113.311 89.7214 113.516 89.9049 113.68C90.0674 113.721 90.2375 113.721 90.4001 113.68C90.7117 113.66 91.0128 113.558 91.2741 113.386L95.8187 110.77C96.0778 110.593 96.2963 110.363 96.4596 110.093V110.123ZM87.4578 107.183C87.6515 106.876 87.7527 106.519 87.7491 106.154C87.768 105.954 87.7283 105.753 87.6351 105.576C87.542 105.398 87.3993 105.252 87.2247 105.155C87.0265 105.083 86.814 105.062 86.6056 105.092C86.3973 105.123 86.1997 105.205 86.0302 105.331L80.7283 108.271C80.4042 108.462 80.1257 108.723 79.9126 109.035C79.7025 109.346 79.6 109.718 79.6213 110.093C79.5984 110.294 79.6363 110.497 79.7299 110.675C79.8235 110.854 79.9684 110.999 80.1456 111.093C80.3382 111.159 80.5432 111.181 80.7451 111.155C80.947 111.13 81.1404 111.058 81.3109 110.946L82.2723 110.387V116.502C82.2514 116.73 82.2824 116.96 82.3632 117.174C82.444 117.388 82.5724 117.58 82.7384 117.736C82.9095 117.855 83.1132 117.917 83.321 117.913C83.5465 117.913 83.7679 117.852 83.9619 117.736C84.3108 117.526 84.5935 117.22 84.7776 116.854C84.9832 116.445 85.0834 115.99 85.0689 115.532V109.123C85.0688 109.013 85.0952 108.905 85.146 108.808C85.1968 108.71 85.2704 108.627 85.3603 108.565L86.5838 107.889C86.8836 107.675 87.1406 107.406 87.3412 107.095L87.4578 107.183ZM119.998 67.7641C120.62 67.4191 121.32 67.2448 122.029 67.2586C122.738 67.2725 123.431 67.474 124.039 67.8431C124.647 68.2122 125.148 68.7359 125.492 69.3617C125.836 69.9875 126.011 70.6935 125.999 71.4091V106.213C126.014 107.259 125.751 108.29 125.239 109.199C124.727 110.109 123.984 110.864 123.086 111.387L80.6117 135.932C79.9046 136.33 79.1058 136.534 78.296 136.521C77.4862 136.508 76.6941 136.28 75.9996 135.86C75.3051 135.439 74.7328 134.841 74.3406 134.126C73.9484 133.411 73.7501 132.604 73.7657 131.787L72.6878 100.393C72.6891 98.9197 73.0714 97.4723 73.7969 96.1937C74.5224 94.9152 75.566 93.8498 76.8246 93.1029L119.998 67.7641Z" fill="white"/>
<path fill-rule="evenodd" clip-rule="evenodd" d="M392.683 14.4094C391.012 19.2643 388.825 23.9239 386.158 28.3074H366.623C367.09 27.62 367.564 26.9301 368.04 26.2382L368.041 26.2367C369.484 24.1396 370.939 22.0247 372.228 19.9098V18.6082L355.831 13.5276H354.618C347.047 28.6433 336.38 38.6784 322.367 48.9654L332.364 58.2027C332.628 58.5196 332.953 58.7796 333.32 58.9672C333.686 59.1548 334.087 59.2661 334.498 59.2944C335.288 59.22 336.035 58.8967 336.631 58.3707C338.095 57.279 339.685 56.0614 341.149 54.8857V73.7383L340.772 90.8692L341.692 91.667L360.39 91.2891H378.252V96.9575H348.971L327.094 96.7055L325.881 97.2514V111.149L326.801 112.073L348.971 111.695H364.95C351.95 118.997 337.997 124.439 323.496 127.861L334.163 140.457C334.321 140.74 334.552 140.975 334.831 141.138C335.111 141.3 335.429 141.384 335.752 141.381C336.3 141.348 336.838 141.22 337.342 141.003C351.93 136.137 365.727 129.148 378.294 120.261L377.499 142.472H398.414L397.619 119.295C408.955 128.49 420.542 134.117 438.529 140.289C439.047 140.508 439.599 140.636 440.16 140.667C440.521 140.689 440.881 140.616 441.204 140.454C441.527 140.291 441.802 140.046 442 139.743L453.629 125.971C438.651 123.324 424.137 118.501 410.544 111.653H428.155L450.283 112.031L451.203 111.107V97.4614L450.283 96.6636L428.155 96.9155H397.744V91.5831H425.729L444.678 91.961L445.472 91.4151V78.8187L444.678 78.2729L425.729 78.6928H403.224V73.8222H418.408L437.357 74.0741L438.152 73.6962V62.6954L437.357 62.0236L418.408 62.4435H403.224V57.6149H418.408L437.357 58.0348L438.152 57.4889V46.5301L437.357 45.9843L418.408 46.2362H403.224V41.1557H424.557L443.465 41.4076L444.259 40.9037V28.5593L443.465 27.9295L424.557 28.3074H405.859C408.081 25.242 410.093 22.0297 411.883 18.6922L411.088 17.4745L393.729 13.7376L392.683 14.4094ZM359.888 46.2362V41.1557L384.275 40.9037V46.2362H359.888ZM359.888 62.4435V57.6149H384.275V62.4435H359.888ZM359.888 78.6928V73.8222L384.275 73.6543V78.6928H359.888Z" fill="white"/>
<path d="M213.358 110.981C211.754 117.54 209.248 123.843 205.912 129.708L205.829 44.0948C207.962 36.369 209.928 27.9295 211.936 18.6922L211.267 17.4745L195.539 13.8635L194.493 14.5353C191.126 36.3795 184.557 57.6033 175 77.5171L179.559 95.9917C179.81 96.9575 180.396 97.4613 180.898 97.4613C181.4 97.4613 182.069 97.0834 182.613 96.1177C184.916 92.8346 186.838 89.2988 188.344 85.5788V100.82L187.674 142.178H205.912V132.941L219.214 138.148L220.553 137.644C224.159 130.954 226.806 123.788 228.417 116.356L227.747 114.592L214.822 110.184L213.358 110.981Z" fill="white"/>
<path fill-rule="evenodd" clip-rule="evenodd" d="M276.981 47.2859C278.153 44.3467 279.24 41.4076 280.286 38.3005L295.387 38.7203L296.223 38.0486V25.7461L295.387 25.0743L277.651 25.4522H263.805V15.2911L262.885 14.3674H245.818L244.856 15.2911V25.4522H232.307L214.446 25.0743L213.609 25.8721V37.9225L214.571 38.7203L228.961 38.4684C229.769 41.4076 230.439 44.3467 230.968 47.2859H225.614L209.217 46.866L208.297 47.7057V59.7142L209.342 60.554L225.614 60.1341H284.176L302.038 60.554L302.832 59.8822V47.5378L302.038 46.866L284.176 47.2859H276.981ZM248.286 47.1179C247.491 44.0528 246.571 41.0716 245.651 38.1325H261.755C261.677 38.4746 261.599 38.8191 261.521 39.1652L261.521 39.1662C260.927 41.7935 260.31 44.5212 259.497 47.1179H248.286Z" fill="white"/>
<path fill-rule="evenodd" clip-rule="evenodd" d="M270.038 113.249C267.122 110.042 263.9 107.131 260.417 104.557L270.958 104.935L288.317 105.355L289.238 104.137L288.819 90.6173V78.0209L289.238 64.8788L288.317 63.9551L271.92 64.3749H236.155L219.633 63.9551L218.712 64.8788L219.089 78.0209V90.6173L218.419 104.263L219.214 105.355L236.95 104.935H254.56L246.195 109.764L245.944 109.512H231.136L230.09 110.562V118.959L229.797 129.792C229.797 139.029 232.558 140.625 250.712 140.625C270.163 140.625 274.555 138.945 277.483 136.426C280.358 133.273 282.02 129.194 282.168 124.921C282.294 123.158 281.499 122.486 279.784 121.814L266.984 117.28C266.022 125.173 265.52 125.971 254.435 125.971C247.115 125.971 247.115 125.551 247.115 122.486V111.779C250.727 114.891 253.982 118.397 256.819 122.234H258.032L269.745 114.592L270.038 113.249ZM271.083 74.5359V79.3646H236.448V74.5359H271.083ZM271.083 93.6825H236.448V88.8538H271.083V93.6825Z" fill="white"/>
<path d="M290.158 107.622H288.819L277.107 113.795L276.689 114.97C281.95 120.618 286.196 127.139 289.238 134.243L290.451 134.663L303.376 126.895L303.753 125.677C300.137 119.016 295.555 112.932 290.158 107.622Z" fill="white"/>
<path d="M493.995 35.2353C490.816 35.6552 487.846 36.0331 485.043 36.159C484.488 36.2982 483.904 36.2732 483.362 36.087C482.82 35.9007 482.344 35.5612 481.99 35.1093L474.795 22.8069C488.726 22.3314 502.535 20.0305 515.872 15.9629H517.211C521.772 19.2696 526.053 22.949 530.011 26.9637L529.592 28.2654C523.611 29.7769 517.336 31.2465 511.187 32.4642V47.7477H513.739L527.71 47.3278L528.379 47.9996V62.8633L527.71 63.5351L513.739 63.1152H511.187V75.1658L518.382 70.3371H519.846C524.828 75.2577 529.299 80.674 533.19 86.5025V87.8461L521.185 96.5376H519.846C517.285 91.8523 514.492 87.298 511.48 82.8915V95.8658L512.442 141.507H493.033L493.953 98.6789C491.627 104.814 488.684 110.694 485.169 116.23C484.625 117.028 484.081 117.448 483.412 117.448C482.987 117.392 482.582 117.227 482.238 116.97C481.894 116.713 481.621 116.371 481.446 115.978L472.745 101.912C481.276 90.0715 487.818 76.9093 492.113 62.9473H490.481L475.297 63.3672L474.377 62.5694V47.9576L475.172 47.1599L490.481 47.5797H493.828L493.995 35.2353Z" fill="white"/>
<path d="M587.192 141.926H566.946L567.448 104.557L546.282 109.26L528.797 113.459L527.584 113.039L524.949 96.4536L525.744 95.5298L543.731 92.2968L567.616 87.2163V15.8369L568.536 14.9132H585.603L586.523 15.8369V83.0175L598.779 79.9524L600.118 80.3303L602.418 96.4116L601.582 97.3354L586.648 100.274L587.192 141.926Z" fill="white"/>
<path d="M552.682 80.3303L551.344 80.7502C545.234 75.787 538.565 71.5594 531.475 68.1538V66.8102L540.928 55.0536L542.267 54.6337C549.168 57.6452 555.766 61.315 561.969 65.5926L562.261 66.9361L552.682 80.3303Z" fill="white"/>
<path d="M554.941 50.351H553.603C548.045 44.5736 541.658 39.6627 534.654 35.7812V34.4376L545.32 23.8566H546.659C553.696 27.025 560.145 31.3695 565.733 36.7049V38.0485L554.941 50.351Z" fill="white"/>
<path d="M624.504 55.7254L625.425 56.5232L639.48 56.1033V77.3912C634.786 78.6896 629.961 79.7913 625.237 80.8702C624.615 81.0124 623.994 81.1542 623.375 81.296L622.706 82.4717L628.102 98.1751L629.315 98.847C632.787 97.7973 636.259 96.7056 639.563 95.4879V119.253C639.563 122.36 638.768 123.158 635.966 123.452C632.381 123.83 628.778 124.012 625.174 123.998L632.661 140.793C633.163 142.136 633.582 142.388 635.171 142.388C652.112 142.388 657.968 138.399 657.968 122.864L657.299 93.0106V89.1478C661.315 87.7622 664.787 86.2926 667.715 84.949C669.974 83.8153 670.517 83.1435 670.517 80.7502V67.3561C666.376 68.9516 661.984 70.5891 657.299 72.0587V56.2713L668.635 56.5232L669.43 55.8514V40.9877L668.635 40.3159L657.299 40.6098V15.0392L656.128 14.0735H640.651L639.563 15.1652V40.7358L625.299 40.3159L624.504 41.1137V55.7254Z" fill="white"/>
<path d="M735.061 63.1993L724.227 63.8711L718.915 63.7871V50.393H729.288L749.158 50.8129L750.12 50.0151V34.3536L749.451 33.4299L729.288 33.8078H718.915V14.9553L717.953 13.9895H700.76L699.84 14.9553V33.8078H692.52L672.651 33.4299L671.689 34.3536V49.8891L672.651 50.8129L692.52 50.393H699.84V63.7871H693.817L676.374 63.5352L675.453 64.4589V79.5745L676.374 80.5403L693.817 80.2463H721.717C719.414 88.1266 715.4 95.3968 709.963 101.534C704.858 96.0309 700.79 89.6431 697.958 82.6816L696.661 82.0098L682.104 87.2163L681.435 88.5599C685.036 97.3441 689.836 105.583 695.699 113.039C684.641 118.961 672.729 123.111 660.395 125.341L670.099 139.827C670.894 141.003 671.312 141.423 673.027 141.003C685.945 137.911 698.287 132.765 709.587 125.761C718.959 132.193 729.441 136.821 740.499 139.407C741.079 139.536 741.665 139.635 742.256 139.701C743.051 139.701 743.427 139.281 743.971 138.483L753.048 122.696C743.071 120.881 733.443 117.494 724.52 112.661C733.492 101.575 739.996 88.6904 743.594 74.8719C743.81 74.1197 743.937 73.3445 743.971 72.5625C744.007 72.181 743.941 71.7967 743.779 71.4496C743.618 71.1025 743.366 70.8053 743.051 70.5892L735.061 63.1993Z" fill="white"/>
<defs>
<linearGradient id="paint0_linear_731_3" x1="69.9414" y1="5.5" x2="69.9414" y2="150.618" gradientUnits="userSpaceOnUse">
<stop stop-color="#3697C6"/>
<stop offset="1" stop-color="#2C2A53"/>
</linearGradient>
</defs>
</svg>
